<svg width="96" height="72" viewBox="0 0 96 72" fill="none" xmlns="http://www.w3.org/2000/svg">
<path d="M40.5013 27.5972L40.4886 27.6099C40.9612 28.2302 40.7745 29.3474 39.9623 30.2534C39.1011 31.2131 37.918 31.5119 37.2543 31.0093L37.2513 31.0132L36.4388 30.4106L36.7924 30.0396C36.7694 29.446 37.0444 28.7395 37.5697 28.1538C38.1455 27.5118 38.9028 27.1479 39.5404 27.1606L39.892 26.7935L40.5013 27.5972Z" fill="url(#paint0_linear_8339_364)"/>
<path d="M39.407 29.69C40.3301 28.6607 40.5109 27.328 39.8107 26.7135C39.1106 26.099 37.7946 26.4353 36.8714 27.4646C35.9482 28.4939 35.7674 29.8265 36.4676 30.4411C37.1678 31.0556 38.4838 30.7193 39.407 29.69Z" fill="url(#paint1_linear_8339_364)"/>
<path d="M39.4197 29.7011C40.3372 28.6781 40.5077 27.3456 39.8004 26.7249C39.0932 26.1042 37.7761 26.4303 36.8586 27.4533C35.9411 28.4763 35.7706 29.8088 36.4778 30.4296C37.185 31.0503 38.5022 30.7241 39.4197 29.7011Z" fill="#0052FE"/>
<path d="M9.64087 36.073L18.6366 26.5383H13.8528L4.29882 36.466V26.5383H0V46.2796H4.29882V41.6252L6.81019 39.0468L12.7925 46.2796H17.8404L10.2494 36.8309L9.64087 36.0722V36.073Z" fill="#0052FE"/>
<path d="M32.5 35.3119C31.1626 33.2133 28.7089 31.9153 25.7174 31.9153C22.5203 31.9153 19.9244 33.399 18.6586 35.7499C18.1118 36.757 17.8136 37.9264 17.8136 39.2035C17.8136 43.4649 21.1496 46.4918 25.7174 46.4918C30.2851 46.4918 33.596 43.4649 33.596 39.2035C33.596 37.7351 33.2019 36.4122 32.5 35.3119ZM25.7174 43.1233C23.6342 43.1233 22.0312 41.6501 22.0312 39.2035C22.0312 37.0993 23.2141 35.7153 24.8708 35.3697C25.1413 35.3111 25.4249 35.2821 25.7174 35.2821C25.9229 35.2821 26.1204 35.295 26.3146 35.3263C28.0931 35.5803 29.376 36.9957 29.376 39.2035C29.376 41.6501 27.8014 43.1233 25.7182 43.1233H25.7174Z" fill="#0052FE"/>
<path d="M40.5386 32.1257H36.373V46.2802H40.5386V32.1257Z" fill="#0052FE"/>
<path d="M53.145 31.9153C51.195 31.9153 49.5124 32.5743 48.3912 33.7832V32.1259H44.4125V46.2804H48.5772V39.2815C48.5772 38.2527 48.8015 37.4417 49.2004 36.8397C49.8049 35.9114 50.8124 35.4686 52.0238 35.4686C53.6609 35.4686 54.6863 36.2988 54.8943 38.0871C54.9211 38.3106 54.9341 38.5533 54.9341 38.8089V46.2796H57.2285L59.1021 43.706V38.1788C59.1021 33.8619 56.5371 31.9153 53.145 31.9153Z" fill="#0052FE"/>
<path d="M80.7555 26.4707L60.3192 46.2803H66.6801L68.5472 43.6545L79.1216 28.771L80.7555 26.4707Z" fill="url(#paint2_linear_8339_364)"/>
<path d="M74.7318 26.4707L74.0785 27.3693L63.8226 41.4635L60.3192 46.2803L80.7555 26.4707H74.7318Z" fill="url(#paint3_linear_8339_364)"/>
<path d="M78.7324 42.8211L78.4683 42.4514C78.2482 42.1427 77.8898 41.9595 77.5096 41.9595H72.7022C72.5242 41.9595 72.3861 42.064 72.3203 42.203L81.2064 46.2803L78.7324 42.8211Z" fill="#F69300"/>
<path d="M72.3202 42.2031C72.2617 42.3269 72.2609 42.478 72.3479 42.6098L73.335 44.0959H73.3375L74.7894 46.2805H81.2071L72.3211 42.2031H72.3202Z" fill="url(#paint4_linear_8339_364)"/>
<path d="M69.4311 30.1373L67.9094 27.927L66.9068 26.4714H60.6279L69.3328 30.7079C69.5034 30.5817 69.5676 30.3358 69.4319 30.1373H69.4311Z" fill="url(#paint5_linear_8339_364)"/>
<path d="M60.6272 26.4708L63.3059 30.2909C63.3173 30.3062 63.3279 30.319 63.3393 30.3343C63.5611 30.6212 63.9047 30.7908 64.272 30.7908H69.0819C69.1802 30.7908 69.2638 30.7571 69.3329 30.7064L60.628 26.47L60.6272 26.4708Z" fill="#F69300"/>
<path d="M87.6895 30.7901V27.1059H89.4567C89.6431 27.1059 89.8228 27.1508 89.9958 27.2407C90.1722 27.3272 90.317 27.457 90.4301 27.6301C90.5466 27.7998 90.6049 28.0095 90.6049 28.2591C90.6049 28.5087 90.545 28.725 90.4252 28.9081C90.3087 29.0878 90.1589 29.2259 89.9759 29.3224C89.7962 29.4189 89.6098 29.4672 89.4168 29.4672H88.0489V28.963H89.247C89.4168 28.963 89.5682 28.9031 89.7013 28.7832C89.8378 28.6601 89.906 28.4854 89.906 28.2591C89.906 28.0261 89.8378 27.8597 89.7013 27.7599C89.5682 27.66 89.4218 27.6101 89.262 27.6101H88.3335V30.7901H87.6895ZM89.8361 29.0778L90.7546 30.7901H90.0358L89.1422 29.0778H89.8361ZM89.0424 32.9866C88.4899 32.9866 87.9724 32.8834 87.4898 32.6771C87.0073 32.4707 86.5829 32.1845 86.2168 31.8184C85.8508 31.4523 85.5646 31.028 85.3582 30.5454C85.1519 30.0629 85.0487 29.5454 85.0487 28.9929C85.0487 28.4405 85.1519 27.923 85.3582 27.4404C85.5646 26.9578 85.8508 26.5335 86.2168 26.1674C86.5829 25.8013 87.0073 25.5151 87.4898 25.3088C87.9724 25.1024 88.4899 24.9993 89.0424 24.9993C89.5948 24.9993 90.1123 25.1024 90.5949 25.3088C91.0775 25.5151 91.5018 25.8013 91.8679 26.1674C92.2339 26.5335 92.5202 26.9578 92.7265 27.4404C92.9328 27.923 93.036 28.4405 93.036 28.9929C93.036 29.5454 92.9328 30.0629 92.7265 30.5454C92.5202 31.028 92.2339 31.4523 91.8679 31.8184C91.5018 32.1845 91.0775 32.4707 90.5949 32.6771C90.1123 32.8834 89.5948 32.9866 89.0424 32.9866ZM89.0424 32.2427C89.6414 32.2427 90.1855 32.0963 90.6748 31.8034C91.1673 31.5106 91.56 31.1195 91.8529 30.6303C92.1458 30.1378 92.2922 29.592 92.2922 28.9929C92.2922 28.3939 92.1458 27.8497 91.8529 27.3605C91.56 26.868 91.1673 26.4753 90.6748 26.1824C90.1855 25.8895 89.6414 25.7431 89.0424 25.7431C88.4433 25.7431 87.8975 25.8895 87.405 26.1824C86.9157 26.4753 86.5247 26.868 86.2318 27.3605C85.939 27.8497 85.7925 28.3939 85.7925 28.9929C85.7925 29.592 85.939 30.1378 86.2318 30.6303C86.5247 31.1195 86.9157 31.5106 87.405 31.8034C87.8975 32.0963 88.4433 32.2427 89.0424 32.2427Z" fill="#D1D7ED"/>
<defs>
<linearGradient id="paint0_linear_8339_364" x1="40.6017" y1="27.7981" x2="37.5929" y2="31.3457" gradientUnits="userSpaceOnUse">
<stop stop-color="#3372F5"/>
<stop offset="0.249995" stop-color="#3372F5"/>
<stop offset="0.505208" stop-color="#80DBFB"/>
<stop offset="0.838547" stop-color="#3372F5"/>
<stop offset="1" stop-color="#3372F5"/>
</linearGradient>
<linearGradient id="paint1_linear_8339_364" x1="45.1139" y1="27.7864" x2="44.3087" y2="28.7027" gradientUnits="userSpaceOnUse">
<stop stop-color="#0080D4"/>
<stop offset="0.47" stop-color="white"/>
<stop offset="0.6" stop-color="#F1F8FC"/>
<stop offset="1" stop-color="#007DCC"/>
</linearGradient>
<linearGradient id="paint2_linear_8339_364" x1="76.1642" y1="31.7866" x2="68.3445" y2="40.9316" gradientUnits="userSpaceOnUse">
<stop stop-color="#FFAC00"/>
<stop offset="1" stop-color="#FE7801"/>
</linearGradient>
<linearGradient id="paint3_linear_8339_364" x1="60.3192" y1="36.3759" x2="80.7555" y2="36.3759" gradientUnits="userSpaceOnUse">
<stop stop-color="#FFCE00"/>
<stop offset="1" stop-color="#FFB003"/>
</linearGradient>
<linearGradient id="paint4_linear_8339_364" x1="72.2788" y1="44.2422" x2="81.2063" y2="44.2422" gradientUnits="userSpaceOnUse">
<stop stop-color="#FE8B01"/>
<stop offset="1" stop-color="#FE7801"/>
</linearGradient>
<linearGradient id="paint5_linear_8339_364" x1="60.6271" y1="28.5893" x2="69.5051" y2="28.5893" gradientUnits="userSpaceOnUse">
<stop stop-color="#FFCE00"/>
<stop offset="1" stop-color="#FFC101"/>
</linearGradient>
</defs>
</svg>
